# xmcd
#
# Track frame offsets:
#	150
#	14596
#	29050
#
# Disc length: 629 seconds
#
# Revision: 0
# Processed by: cddbd v1.5.1PL0 Copyright (c) Steve Scherf et al.
# Submitted via: audiograbber 1.83.01
#
DISCID=22027303
DTITLE=Sharon Heaslip - Warrumbungle Blue
DYEAR=1900
DGENRE=Country
TTITLE0=The Verandah
TTITLE1=Warrumbungle Blue
TTITLE2=Blanket On The Ground
EXTD=
EXTT0=
EXTT1=
EXTT2=
PLAYORDER=
